<svg width="53" height="30" viewBox="0 0 53 30" fill="none" xmlns="http://www.w3.org/2000/svg">
<path d="M8.25337 1.31738C6.15646 -0.479407 3 -0.23611 1.20321 1.8608C-0.593573 3.95771 -0.350276 7.11417 1.74663 8.91095L5 5.11417L8.25337 1.31738ZM50.9726 8.79688C53.0695 7.00009 53.3128 3.84363 51.516 1.74672C49.7192 -0.350184 46.5628 -0.593482 44.4659 1.2033L47.7192 5.00009L50.9726 8.79688ZM5 5.11417L1.74663 8.91095L25.219 29.0238L28.4723 25.227L31.7257 21.4302L8.25337 1.31738L5 5.11417ZM47.7192 5.00009L44.4659 1.2033L20.9935 21.3161L24.2469 25.1129L27.5003 28.9097L50.9726 8.79688L47.7192 5.00009Z" fill="black"/>
</svg>
