<svg width="131" height="121" viewBox="0 0 131 121" fill="none" xmlns="http://www.w3.org/2000/svg">
<path d="M15 60.3052L66.5 35.4754L118 60.305L66.5 85.1348L15 60.3052Z" fill="#D1D1D1"/>
<path d="M101.928 84.295C101.928 90.1384 97.166 94.8755 91.2918 94.8755C85.4177 94.8755 80.6557 90.1384 80.6557 84.295C80.6557 78.4516 85.4177 73.7145 91.2918 73.7145C97.166 73.7145 101.928 78.4516 101.928 84.295Z" fill="#FFD37D"/>
<path d="M45.202 16.58C45.202 22.4234 40.44 27.1605 34.5659 27.1605C28.6917 27.1605 23.9298 22.4234 23.9298 16.58C23.9298 10.7365 28.6917 5.99951 34.5659 5.99951C40.44 5.99951 45.202 10.7365 45.202 16.58Z" fill="#FFD37D"/>
<path d="M40.2385 101.929C40.2385 107.773 35.4765 112.51 29.6024 112.51C23.7282 112.51 18.9662 107.773 18.9662 101.929C18.9662 96.0857 23.7282 91.3486 29.6024 91.3486C35.4765 91.3486 40.2385 96.0857 40.2385 101.929Z" fill="#FFD37D"/>
<path d="M131 55.375C131 61.2185 126.238 65.9555 120.364 65.9555C114.49 65.9555 109.728 61.2185 109.728 55.375C109.728 49.5316 114.49 44.7946 120.364 44.7946C126.238 44.7946 131 49.5316 131 55.375Z" fill="#FFD37D"/>
<path d="M55.3391 50.1619C60.4013 53.1263 62.2241 59.3838 59.4105 64.1385C56.5968 68.8933 50.2122 70.3447 45.15 67.3804C40.0878 64.4161 38.265 58.1585 41.0786 53.4038C43.8922 48.6491 50.2769 47.1976 55.3391 50.1619Z" fill="#FFD37D"/>
<path d="M15.583 55.7942C20.6452 58.7585 22.4681 65.0161 19.6544 69.7708C16.8408 74.5256 10.4562 75.977 5.39398 73.0127C0.331766 70.0483 -1.49107 63.7908 1.32256 59.0361C4.1362 54.2813 10.5208 52.8299 15.583 55.7942Z" fill="#FFD37D"/>
<path d="M67.1142 95.2436C72.1764 98.2079 73.9993 104.465 71.1856 109.22C68.372 113.975 61.9874 115.426 56.9252 112.462C51.8629 109.498 50.0401 103.24 52.8537 98.4855C55.6674 93.7307 62.052 92.2793 67.1142 95.2436Z" fill="#FFD37D"/>
<path d="M90.0837 21.9474C95.1459 24.9117 96.9687 31.1692 94.1551 35.9239C91.3415 40.6787 84.9569 42.1301 79.8946 39.1658C74.8324 36.2015 73.0096 29.9439 75.8232 25.1892C78.6369 20.4345 85.0215 18.983 90.0837 21.9474Z" fill="#FFD37D"/>
</svg>
