<svg width="131" height="108" viewBox="0 0 131 108" fill="none" xmlns="http://www.w3.org/2000/svg">
<path d="M101.928 78.2955C101.928 84.1389 97.166 88.8759 91.2918 88.8759C85.4177 88.8759 80.6557 84.1389 80.6557 78.2955C80.6557 72.452 85.4177 67.715 91.2918 67.715C97.166 67.715 101.928 72.452 101.928 78.2955Z" fill="#FFD37D"/>
<path d="M45.202 10.5805C45.202 16.4239 40.44 21.1609 34.5659 21.1609C28.6917 21.1609 23.9298 16.4239 23.9298 10.5805C23.9298 4.73704 28.6917 0 34.5659 0C40.44 0 45.202 4.73704 45.202 10.5805Z" fill="#FFD37D"/>
<path d="M40.2385 95.9296C40.2385 101.773 35.4765 106.51 29.6024 106.51C23.7282 106.51 18.9662 101.773 18.9662 95.9296C18.9662 90.0862 23.7282 85.3491 29.6024 85.3491C35.4765 85.3491 40.2385 90.0862 40.2385 95.9296Z" fill="#FFD37D"/>
<path d="M131 49.3755C131 55.219 126.238 59.956 120.364 59.956C114.49 59.956 109.728 55.219 109.728 49.3755C109.728 43.5321 114.49 38.7951 120.364 38.7951C126.238 38.7951 131 43.5321 131 49.3755Z" fill="#FFD37D"/>
<path d="M55.3391 44.1624C60.4013 47.1267 62.2241 53.3843 59.4105 58.139C56.5968 62.8938 50.2122 64.3452 45.15 61.3809C40.0878 58.4166 38.265 52.159 41.0786 47.4043C43.8922 42.6495 50.2769 41.1981 55.3391 44.1624Z" fill="#FFD37D"/>
<path d="M15.583 49.7947C20.6452 52.759 22.4681 59.0166 19.6544 63.7713C16.8408 68.526 10.4562 69.9775 5.39398 67.0131C0.331766 64.0488 -1.49107 57.7913 1.32256 53.0366C4.1362 48.2818 10.5208 46.8304 15.583 49.7947Z" fill="#FFD37D"/>
<path d="M67.1142 89.2441C72.1764 92.2084 73.9993 98.466 71.1856 103.221C68.372 107.975 61.9874 109.427 56.9252 106.463C51.8629 103.498 50.0401 97.2407 52.8537 92.486C55.6674 87.7312 62.052 86.2798 67.1142 89.2441Z" fill="#FFD37D"/>
<path d="M90.0837 15.9478C95.1459 18.9122 96.9687 25.1697 94.1551 29.9244C91.3415 34.6792 84.9569 36.1306 79.8946 33.1663C74.8324 30.202 73.0096 23.9444 75.8232 19.1897C78.6369 14.435 85.0215 12.9835 90.0837 15.9478Z" fill="#FFD37D"/>
</svg>
